<svg width="336" height="309" viewBox="0 0 336 309" fill="none" xmlns="http://www.w3.org/2000/svg">
<rect width="336" height="309" fill="#FFEF35"/>
<ellipse cx="168" cy="153.5" rx="123" ry="118.5" fill="black"/>
<ellipse cx="168" cy="153.5" rx="115" ry="110.5" fill="#FFEF35"/>
<path d="M62 151C62 95.7715 106.772 51 162 51H168V257H162C106.772 257 62 212.228 62 157V151Z" fill="black"/>
<line x1="175.5" y1="40" x2="175.5" y2="268" stroke="black" stroke-width="3"/>
<line x1="162" y1="47" x2="162" y2="257" stroke="#FFEF35" stroke-width="2"/>
<line x1="88" y1="79.0068" x2="87.0067" y2="226.007" stroke="#FFEF35" stroke-width="2"/>
<line x1="79" y1="94.0083" x2="78" y2="214.008" stroke="#FFEF35" stroke-width="2"/>
<line x1="130" y1="50.9952" x2="131" y2="257.995" stroke="#FFEF35" stroke-width="2"/>
<line x1="97" y1="69" x2="97" y2="234" stroke="#FFEF35" stroke-width="2"/>
<line x1="152" y1="50.9952" x2="153" y2="260.995" stroke="#FFEF35" stroke-width="2"/>
<line x1="70.9999" y1="102.01" x2="70.0099" y2="201.01" stroke="#FFEF35" stroke-width="2"/>
<line x1="108" y1="63.0056" x2="107" y2="240.006" stroke="#FFEF35" stroke-width="2"/>
<line x1="120" y1="55" x2="120" y2="249" stroke="#FFEF35" stroke-width="2"/>
<line x1="142" y1="51" x2="142" y2="261" stroke="#FFEF35" stroke-width="2"/>
</svg>
